<svg xmlns="http://www.w3.org/2000/svg" width="107.868" height="60.035" viewBox="0 0 107.868 60.035">
  <g id="Group_5" data-name="Group 5" transform="translate(-666.5 -422.5)">
    <path id="Icon_material-do-not-disturb-alt" data-name="Icon material-do-not-disturb-alt" d="M32.975,3A30.017,30.017,0,1,0,62.951,33.017,30.085,30.085,0,0,0,32.975,3ZM9,33.017A24.068,24.068,0,0,1,32.975,9a23.6,23.6,0,0,1,14.688,5.1L14.091,47.726A23.678,23.678,0,0,1,9,33.017Zm23.98,24.014a23.6,23.6,0,0,1-14.688-5.1L51.86,18.309a23.678,23.678,0,0,1,5.1,14.709A24.068,24.068,0,0,1,32.975,57.031Z" transform="translate(663.5 419.5)"/>
    <path id="Icon_simple-marketo" data-name="Icon simple-marketo" d="M24.219,0V36l9.2-7.329V5ZM19.94,28.137l-7.409,3.236V3.129L19.94,5.322ZM2.582,27.308l5.67-1.5V7.782L2.609,6.873Z" transform="translate(740.948 434.517)"/>
  </g>
</svg>
