<svg xmlns="http://www.w3.org/2000/svg" width="113.074" height="56.998" viewBox="0 0 113.074 56.998">
  <g id="Group_3" data-name="Group 3" transform="translate(-804 -341)">
    <path id="Icon_awesome-sticky-note" data-name="Icon awesome-sticky-note" d="M39.7,38.892H57V5.3A3.046,3.046,0,0,0,53.945,2.25H3.053A3.046,3.046,0,0,0,0,5.3V56.195a3.046,3.046,0,0,0,3.053,3.053H36.642v-17.3A3.062,3.062,0,0,1,39.7,38.892Zm16.412,7L43.639,58.357a3.051,3.051,0,0,1-2.163.891h-.763V42.963H57v.776A3.044,3.044,0,0,1,56.107,45.889Z" transform="translate(804 338.75)"/>
    <path id="Icon_ionic-md-add" data-name="Icon ionic-md-add" d="M48.824,30.592H30.592V48.824h-5.61V30.592H6.75v-5.61H24.982V6.75h5.61V24.982H48.824Z" transform="translate(868.25 341.25)"/>
  </g>
</svg>
