<svg xmlns="http://www.w3.org/2000/svg" width="112.229" height="61.535" viewBox="0 0 112.229 61.535">
  <g id="Group_2" data-name="Group 2" transform="translate(-546 -346)">
    <path id="Icon_awesome-comment-alt" data-name="Icon awesome-comment-alt" d="M53.84,0H7.691A7.7,7.7,0,0,0,0,7.691V42.3a7.7,7.7,0,0,0,7.691,7.691H19.228V60.089a1.445,1.445,0,0,0,2.3,1.166l15.01-11.261H53.84A7.7,7.7,0,0,0,61.531,42.3V7.691A7.7,7.7,0,0,0,53.84,0Z" transform="translate(546 346)"/>
    <path id="Icon_material-phone-in-talk" data-name="Icon material-phone-in-talk" d="M48.731,44.011h8.78A39.514,39.514,0,0,0,18,4.5v8.78A30.708,30.708,0,0,1,48.731,44.011Zm-17.56,0h8.78A21.958,21.958,0,0,0,18,22.06v8.78A13.153,13.153,0,0,1,31.17,44.011Z" transform="translate(600.719 352.147)"/>
  </g>
</svg>
