<svg xmlns="http://www.w3.org/2000/svg" width="112.55" height="57.377" viewBox="0 0 112.55 57.377">
  <g id="Group_1" data-name="Group 1" transform="translate(-576.602 -314)">
    <path id="Icon_open-question-mark" data-name="Icon open-question-mark" d="M14.594,0C9.571,0,5.849,1.754,3.486,4.451A15.748,15.748,0,0,0,0,13.084l5.908.877A8.751,8.751,0,0,1,7.74,9.307c1.123-1.281,2.9-2.563,6.854-2.563,3.9,0,6.026,1.079,7.208,2.293a6.044,6.044,0,0,1,1.654,4.451c0,5.6-2.009,7.149-4.963,10.117s-6.854,7.284-6.854,15.175v1.686h5.908V38.781c0-5.6,1.832-7.149,4.786-10.117s7.031-7.284,7.031-15.175a13.939,13.939,0,0,0-3.486-9.51C23.338,1.349,19.556,0,14.594,0ZM11.639,47.211v6.744h5.908V47.211Z" transform="translate(659.788 315.754)"/>
    <path id="Icon_material-markunread" data-name="Icon material-markunread" d="M68.206,6H10.245a7.2,7.2,0,0,0-7.209,7.172L3,56.205a7.23,7.23,0,0,0,7.245,7.172H68.206a7.23,7.23,0,0,0,7.245-7.172V13.172A7.23,7.23,0,0,0,68.206,6Zm0,14.344L39.226,38.275,10.245,20.344V13.172L39.226,31.1l28.981-17.93Z" transform="translate(573.602 308)"/>
  </g>
</svg>
