<svg xmlns="http://www.w3.org/2000/svg" width="158.499" height="96.656" viewBox="0 0 158.499 96.656">
  <g id="Admin" transform="translate(-1500 -1009)">
    <path id="FontAwsome_building_" data-name="FontAwsome (building)" d="M62.966,90.615H60.078V4.531c0-2.5-1.552-4.531-3.466-4.531H8.087C6.173,0,4.621,2.028,4.621,4.531V90.615H1.733A2.054,2.054,0,0,0,0,92.881v3.776H64.7V92.881A2.054,2.054,0,0,0,62.966,90.615ZM18.485,14.347a2.054,2.054,0,0,1,1.733-2.265H26a2.054,2.054,0,0,1,1.733,2.265V21.9A2.054,2.054,0,0,1,26,24.164H20.219A2.054,2.054,0,0,1,18.485,21.9Zm0,18.123a2.054,2.054,0,0,1,1.733-2.265H26a2.054,2.054,0,0,1,1.733,2.265v7.551A2.054,2.054,0,0,1,26,42.287H20.219a2.054,2.054,0,0,1-1.733-2.265ZM26,60.41H20.219a2.054,2.054,0,0,1-1.733-2.265V50.594a2.054,2.054,0,0,1,1.733-2.265H26a2.054,2.054,0,0,1,1.733,2.265v7.551A2.054,2.054,0,0,1,26,60.41ZM36.971,90.615H27.728V74.758a2.054,2.054,0,0,1,1.733-2.265h5.777a2.054,2.054,0,0,1,1.733,2.265Zm9.243-32.471a2.054,2.054,0,0,1-1.733,2.265H38.7a2.054,2.054,0,0,1-1.733-2.265V50.594A2.054,2.054,0,0,1,38.7,48.328h5.777a2.054,2.054,0,0,1,1.733,2.265Zm0-18.123a2.054,2.054,0,0,1-1.733,2.265H38.7a2.054,2.054,0,0,1-1.733-2.265V32.471A2.054,2.054,0,0,1,38.7,30.205h5.777a2.054,2.054,0,0,1,1.733,2.265Zm0-18.123a2.054,2.054,0,0,1-1.733,2.265H38.7A2.054,2.054,0,0,1,36.971,21.9V14.347A2.054,2.054,0,0,1,38.7,12.082h5.777a2.054,2.054,0,0,1,1.733,2.265Z" transform="translate(1500 1009)" fill="#181e38"/>
    <path id="FontAwsome_chart-bar_" data-name="FontAwsome (chart-bar)" d="M43.354,122.163H50.78a2.859,2.859,0,0,0,2.475-2.808V89.869a2.859,2.859,0,0,0-2.475-2.808H43.354a2.859,2.859,0,0,0-2.475,2.808v29.486A2.859,2.859,0,0,0,43.354,122.163Zm18.564,0h7.425a2.859,2.859,0,0,0,2.475-2.808V68.808A2.859,2.859,0,0,0,69.343,66H61.918a2.859,2.859,0,0,0-2.475,2.808v50.547A2.859,2.859,0,0,0,61.918,122.163Zm-37.127,0h7.425a2.859,2.859,0,0,0,2.475-2.808V75.829a2.859,2.859,0,0,0-2.475-2.808H24.79a2.859,2.859,0,0,0-2.475,2.808v43.526A2.859,2.859,0,0,0,24.79,122.163ZM82.913,134.2H12.376V67.51A3.321,3.321,0,0,0,9.282,64H3.094A3.321,3.321,0,0,0,0,67.51v73.714c0,3.877,2.771,7.02,6.188,7.02H82.913a3.321,3.321,0,0,0,3.094-3.51v-7.02A3.321,3.321,0,0,0,82.913,134.2Z" transform="translate(1572.492 953.055)" fill="#181e38"/>
  </g>
</svg>
