<svg xmlns="http://www.w3.org/2000/svg" width="112.58" height="96.656" viewBox="0 0 112.58 96.656">
  <g id="Arts" transform="translate(-895.046 -2512)">
    <path id="FontAwsome_microscope_" data-name="FontAwsome (microscope)" d="M30.205,60.41h2.265v3.021a3.02,3.02,0,0,0,3.021,3.021h7.551a3.02,3.02,0,0,0,3.021-3.021V60.41h2.265a6.042,6.042,0,0,0,6.041-6.041V12.082a6.042,6.042,0,0,0-6.041-6.041V3.021A3.02,3.02,0,0,0,45.308,0H33.226a3.02,3.02,0,0,0-3.021,3.021V6.041a6.042,6.042,0,0,0-6.041,6.041V54.369A6.042,6.042,0,0,0,30.205,60.41Zm57.39,24.164h-.244A36.186,36.186,0,0,0,60.41,24.164V36.246a24.164,24.164,0,1,1,0,48.328H9.062A9.061,9.061,0,0,0,0,93.636a3.02,3.02,0,0,0,3.021,3.021H93.636a3.02,3.02,0,0,0,3.021-3.021A9.061,9.061,0,0,0,87.595,84.574ZM19.633,78.533H58.9a1.51,1.51,0,0,0,1.51-1.51V74a1.51,1.51,0,0,0-1.51-1.51H19.633A1.51,1.51,0,0,0,18.123,74v3.021A1.51,1.51,0,0,0,19.633,78.533Z" transform="translate(910.97 2512)" fill="#181e38"/>
    <path id="FontAwsome_atom_" data-name="FontAwsome (atom)" d="M14.7,14a2,2,0,1,0,2.1,2,2.052,2.052,0,0,0-2.1-2ZM28.752,8c-.714-1.219-2.658-3.172-7.63-2.617C19.711,2.18,17.562,0,14.7,0S9.686,2.18,8.275,5.383C3.3,4.836,1.359,6.782.645,8-.43,9.837-.34,12.572,2.294,16-.34,19.432-.43,22.166.645,24c1.912,3.274,6.67,2.727,7.63,2.617C9.686,29.823,11.835,32,14.7,32s5.013-2.18,6.424-5.383c.96.109,5.718.656,7.63-2.617,1.075-1.836.985-4.571-1.649-8,2.634-3.43,2.724-6.165,1.649-8ZM4.156,22c-.262-.453-.008-1.547.985-3.016.451.406.927.8,1.436,1.2.107.859.262,1.7.443,2.508C5.4,22.745,4.4,22.416,4.156,22Zm2.42-10.181c-.509.391-.985.789-1.436,1.2C4.148,11.548,3.894,10.454,4.156,10c.222-.383,1.075-.719,2.486-.719.115,0,.254.023.377.023C6.831,10.142,6.683,10.978,6.576,11.822ZM14.7,4c.624,0,1.46.844,2.223,2.328-.738.234-1.477.5-2.223.8-.747-.3-1.485-.57-2.223-.8C13.238,4.844,14.075,4,14.7,4Zm0,24c-.624,0-1.46-.844-2.223-2.328.738-.234,1.477-.5,2.223-.8.747.3,1.485.57,2.223.8C16.159,27.159,15.322,28,14.7,28Zm0-7a5.13,5.13,0,0,1-5.249-5A5.13,5.13,0,0,1,14.7,11a5.13,5.13,0,0,1,5.249,5A5.13,5.13,0,0,1,14.7,21Zm10.542,1c-.238.414-1.247.742-2.863.688.181-.813.336-1.649.443-2.508.509-.391.985-.789,1.436-1.2C25.249,20.455,25.5,21.549,25.241,22Zm-.985-8.985c-.451-.406-.927-.8-1.436-1.2-.107-.844-.254-1.68-.443-2.516.123,0,.263-.023.377-.023,1.411,0,2.264.336,2.486.719C25.5,10.454,25.249,11.548,24.256,13.017Z" transform="translate(895.046 2550.835) rotate(-16)" fill="#181e38"/>
  </g>
</svg>
