<svg xmlns="http://www.w3.org/2000/svg" width="112.766" height="96.656" viewBox="0 0 112.766 96.656">
  <g id="Engineering" transform="translate(-546 -1009)">
    <path id="FontAwsome_ruler-combined_" data-name="FontAwsome (ruler-combined)" d="M20.137,36.246H13.089a1.007,1.007,0,0,1-1.007-1.007V33.226a1.007,1.007,0,0,1,1.007-1.007h7.048V24.164H13.089a1.007,1.007,0,0,1-1.007-1.007V21.144a1.007,1.007,0,0,1,1.007-1.007h7.048V12.082H13.089a1.007,1.007,0,0,1-1.007-1.007V9.062a1.007,1.007,0,0,1,1.007-1.007h7.048V4.027A4.028,4.028,0,0,0,16.109,0H4.027A4.028,4.028,0,0,0,0,4.027V60.411a3.874,3.874,0,0,0,.2.982L20.137,41.454ZM60.41,44.3H56.383v7.048a1.007,1.007,0,0,1-1.007,1.007H53.363a1.007,1.007,0,0,1-1.007-1.007V44.3H44.3v7.048a1.007,1.007,0,0,1-1.007,1.007H41.28a1.007,1.007,0,0,1-1.007-1.007V44.3H32.219v7.048a1.007,1.007,0,0,1-1.007,1.007H29.2a1.007,1.007,0,0,1-1.007-1.007V44.3H22.985L3.046,64.24a3.885,3.885,0,0,0,.982.2H60.41a4.028,4.028,0,0,0,4.027-4.027V48.328A4.028,4.028,0,0,0,60.41,44.3Z" transform="translate(610.438 1009) rotate(90)" fill="#181e38"/>
    <path id="FontAwsome_ring_" data-name="FontAwsome (ring)" d="M42.959,64C18.469,64,0,74.389,0,88.164v16.467c0,13.148,19.234,23.807,42.959,23.807s42.959-10.659,42.959-23.807V88.164C85.917,74.389,67.448,64,42.959,64Zm0,10.74c17.794,0,32.219,6.011,32.219,13.425a6.917,6.917,0,0,1-1.831,4.428c-7.541-4.393-18.267-7.113-30.388-7.113S20.112,88.2,12.57,92.593a6.917,6.917,0,0,1-1.831-4.428C10.74,80.75,25.164,74.74,42.959,74.74ZM20.209,97.669a59.068,59.068,0,0,1,22.75-4.135,59.068,59.068,0,0,1,22.75,4.135c-5.828,2.421-13.868,3.92-22.75,3.92S26.037,100.09,20.209,97.669Z" transform="translate(572.849 977.219)" fill="#181e38"/>
  </g>
</svg>
