<svg xmlns="http://www.w3.org/2000/svg" width="117.838" height="132.242" viewBox="0 0 117.838 132.242">
  <g id="KeepDistance" transform="translate(-1594 -46.658)">
    <g id="people-virus-protection-distance-covid19" transform="translate(1595.184 50.355)">
      <path id="Path_1" data-name="Path 1" d="M67.3,22.419,59.463,14.2v2.812A2.114,2.114,0,0,1,57.4,19.175H30.6a2.114,2.114,0,0,1-2.062-2.163V14.2L20.7,22.419l7.835,8.219V27.827A2.114,2.114,0,0,1,30.6,25.664H57.4a2.114,2.114,0,0,1,2.062,2.163v2.812Z" transform="translate(13.733 12.204)" fill="#181e38"/>
      <path id="Path_4" data-name="Path 4" d="M50.619,8.489v8.652a2.064,2.064,0,1,1-4.124,0V8.489a2.064,2.064,0,1,0-4.124,0v8.652a2.064,2.064,0,1,1-4.124,0V8.489a2.064,2.064,0,1,0-4.124,0v8.652a2.064,2.064,0,1,1-4.124,0V8.489A6.362,6.362,0,0,1,36.186,2a5.976,5.976,0,0,1,4.124,1.687A5.976,5.976,0,0,1,44.433,2,6.362,6.362,0,0,1,50.619,8.489Z" transform="translate(23.608 -1.999)" fill="#181e38"/>
      <path id="Path_6" data-name="Path 6" d="M2048.205-677.208s4.137.039,6.015,0c.021.021,1.211.1,1.288,1.825a1.7,1.7,0,0,1-1.288,1.949h-9.749s-2.326-.733-.769-4.314c2.945-2.914,5.374-5.505,5.374-5.505s5.3-4.908,0-7.391c-3.166-.407-3.9,1.4-5,2.077a2.107,2.107,0,0,1-.97-3.561c1.449-1.445,5.786-3.232,8.606-1.5a6.655,6.655,0,0,1,2.763,8.37C2053.033-682.258,2048.205-677.208,2048.205-677.208Z" transform="translate(-2004.184 690.645)" fill="#181e38"/>
    </g>
    <path id="FontAwsome_male_" data-name="FontAwsome (male)" d="M15.919,0A10.613,10.613,0,1,1,5.306,10.613,10.613,10.613,0,0,1,15.919,0m7.959,23.878H21.994a14.573,14.573,0,0,1-12.151,0H7.959A7.959,7.959,0,0,0,0,31.838V54.389a3.98,3.98,0,0,0,3.98,3.98H6.633V80.92a3.98,3.98,0,0,0,3.98,3.98H21.225a3.98,3.98,0,0,0,3.98-3.98V58.369h2.653a3.98,3.98,0,0,0,3.98-3.98V31.838A7.959,7.959,0,0,0,23.878,23.878Z" transform="translate(1594 94)" fill="#181e38"/>
    <path id="FontAwsome_male_2" data-name="FontAwsome (male)" d="M15.919,0A10.613,10.613,0,1,1,5.306,10.613,10.613,10.613,0,0,1,15.919,0m7.959,23.878H21.994a14.573,14.573,0,0,1-12.151,0H7.959A7.959,7.959,0,0,0,0,31.838V54.389a3.98,3.98,0,0,0,3.98,3.98H6.633V80.92a3.98,3.98,0,0,0,3.98,3.98H21.225a3.98,3.98,0,0,0,3.98-3.98V58.369h2.653a3.98,3.98,0,0,0,3.98-3.98V31.838A7.959,7.959,0,0,0,23.878,23.878Z" transform="translate(1680 94)" fill="#181e38"/>
  </g>
</svg>
