<svg xmlns="http://www.w3.org/2000/svg" width="135" height="96.656" viewBox="0 0 135 96.656">
  <g id="Group_33" data-name="Group 33" transform="translate(-229 -1009)">
    <path id="FontAwsome_prescription-bottle_" data-name="FontAwsome (prescription-bottle)" d="M5.11,36.246H24.271a1.413,1.413,0,0,1,1.277,1.51v3.021a1.413,1.413,0,0,1-1.277,1.51H5.11V54.369H24.271a1.413,1.413,0,0,1,1.277,1.51V58.9a1.413,1.413,0,0,1-1.277,1.51H5.11V72.492H24.271A1.413,1.413,0,0,1,25.549,74v3.021a1.413,1.413,0,0,1-1.277,1.51H5.11V90.615c0,3.323,2.3,6.041,5.11,6.041H51.1c2.81,0,5.11-2.718,5.11-6.041V24.164H5.11ZM57.485,0H3.832C1.725,0,0,2.039,0,4.531v9.062c0,2.492,1.725,4.531,3.832,4.531H57.485c2.108,0,3.832-2.039,3.832-4.531V4.531C61.317,2.039,59.593,0,57.485,0Z" transform="translate(229 1009)" fill="#181e38"/>
    <path id="FontAwsome_prescription-bottle-alt_" data-name="FontAwsome (prescription-bottle-alt)" d="M63.6,0H4.24A4.406,4.406,0,0,0,0,4.531v9.062a4.406,4.406,0,0,0,4.24,4.531H63.6a4.406,4.406,0,0,0,4.24-4.531V4.531A4.406,4.406,0,0,0,63.6,0ZM5.654,90.615a5.874,5.874,0,0,0,5.654,6.041H56.536a5.874,5.874,0,0,0,5.654-6.041V24.164H5.654ZM16.961,55.879a1.469,1.469,0,0,1,1.413-1.51h9.894V43.8a1.469,1.469,0,0,1,1.413-1.51h8.48a1.469,1.469,0,0,1,1.413,1.51V54.369h9.894a1.469,1.469,0,0,1,1.413,1.51v9.062a1.469,1.469,0,0,1-1.413,1.51H39.575V77.023a1.469,1.469,0,0,1-1.413,1.51h-8.48a1.469,1.469,0,0,1-1.413-1.51V66.451H18.374a1.469,1.469,0,0,1-1.413-1.51Z" transform="translate(296.157 1009)" fill="#181e38"/>
  </g>
</svg>
