<svg id="Group_11" data-name="Group 11" xmlns="http://www.w3.org/2000/svg" width="134.206" height="96.916" viewBox="0 0 134.206 96.916">
  <path id="FontAwsome_gavel_" data-name="FontAwsome (gavel)" d="M91.454,34.379l-4.1-3.9a4.5,4.5,0,0,0-6.147,0l-1.025.976-20.49-19.51,1.025-.976a4,4,0,0,0,0-5.853l-4.1-3.9a4.5,4.5,0,0,0-6.147,0L27.935,22.673a4,4,0,0,0,0,5.853l4.1,3.9a4.5,4.5,0,0,0,6.147,0l1.025-.976,7.171,6.829L31.7,52.256l-1.025-.976a6,6,0,0,0-8.2,0L1.7,71.068a5.334,5.334,0,0,0,0,7.8l8.2,7.8a6,6,0,0,0,8.2,0L38.871,66.889a5.334,5.334,0,0,0,0-7.8l-1.025-.976L52.523,44.134l7.172,6.829-1.025.976a4,4,0,0,0,0,5.853l4.1,3.9a4.5,4.5,0,0,0,6.147,0L91.454,40.232a4,4,0,0,0,0-5.853Z" transform="translate(0 0.001)" fill="#181e38"/>
  <path id="Path_7" data-name="Path 7" d="M1360.592,326.592h66.163l6.965,13.72h-82.48Z" transform="translate(-1307.48 -246.267)" fill="#181e38"/>
  <path id="Path_8" data-name="Path 8" d="M1362.364,326.592h78.694l8.284,13.72h-98.1Z" transform="translate(-1315.135 -243.397)" fill="#181e38"/>
</svg>
