<svg xmlns="http://www.w3.org/2000/svg" width="142.194" height="96.656" viewBox="0 0 142.194 96.656">
  <g id="Tech" transform="translate(-1198 -1009)">
    <path id="FontAwsome_microchip_" data-name="FontAwsome (microchip)" d="M62.523,8V77.345c0,4.419-3.23,8-7.214,8H21.643c-3.984,0-7.214-3.582-7.214-8V8c0-4.419,3.23-8,7.214-8H55.309C59.293,0,62.523,3.582,62.523,8Zm14.428,9.668v2a.955.955,0,0,1-.9,1H73.344v1a.955.955,0,0,1-.9,1H66.13v-8h6.312a.955.955,0,0,1,.9,1v1h2.705a.955.955,0,0,1,.9,1Zm0,16v2a.955.955,0,0,1-.9,1H73.344v1a.955.955,0,0,1-.9,1H66.13v-8h6.312a.955.955,0,0,1,.9,1v1h2.705A.955.955,0,0,1,76.951,33.672Zm0,16v2a.955.955,0,0,1-.9,1H73.344v1a.955.955,0,0,1-.9,1H66.13v-8h6.312a.955.955,0,0,1,.9,1v1h2.705A.955.955,0,0,1,76.951,49.674Zm0,16v2a.955.955,0,0,1-.9,1H73.344v1a.955.955,0,0,1-.9,1H66.13v-8h6.312a.955.955,0,0,1,.9,1v1h2.705A.955.955,0,0,1,76.951,65.677Zm-72.442-3h6.312v8H4.509a.955.955,0,0,1-.9-1v-1H.9a.955.955,0,0,1-.9-1v-2a.955.955,0,0,1,.9-1H3.607v-1A.955.955,0,0,1,4.509,62.676Zm0-16h6.312v8H4.509a.955.955,0,0,1-.9-1v-1H.9a.955.955,0,0,1-.9-1v-2a.955.955,0,0,1,.9-1H3.607v-1A.955.955,0,0,1,4.509,46.674Zm0-16h6.312v8H4.509a.955.955,0,0,1-.9-1v-1H.9a.955.955,0,0,1-.9-1v-2a.955.955,0,0,1,.9-1H3.607v-1A.955.955,0,0,1,4.509,30.671Zm0-16h6.312v8H4.509a.955.955,0,0,1-.9-1v-1H.9a.955.955,0,0,1-.9-1v-2a.955.955,0,0,1,.9-1H3.607v-1A.955.955,0,0,1,4.509,14.669Z" transform="translate(1263.243 1013.833)" fill="#181e38"/>
    <path id="FontAwsome_memory_" data-name="FontAwsome (memory)" d="M96.656,10.11V4.833A4.833,4.833,0,0,0,91.824,0H4.833A4.833,4.833,0,0,0,0,4.833V10.11a7.228,7.228,0,0,1,4.833,6.805A7.228,7.228,0,0,1,0,23.72V38.663H96.656V23.72a7.208,7.208,0,0,1,0-13.61ZM33.83,29H24.164V9.666H33.83Zm19.331,0H43.5V9.666h9.666Zm19.331,0H62.827V9.666h9.666ZM0,57.994H9.666V53.966a2.416,2.416,0,1,1,4.833,0v4.028H33.83V53.966a2.416,2.416,0,1,1,4.833,0v4.028H57.994V53.966a2.416,2.416,0,1,1,4.833,0v4.028H82.158V53.966a2.416,2.416,0,1,1,4.833,0v4.028h9.666V43.5H0Z" transform="translate(1198 1105.656) rotate(-90)" fill="#181e38"/>
  </g>
</svg>
